<?xml version="1.0" standalone="no"?>
<!DOCTYPE svg PUBLIC "-//W3C//DTD SVG 20010904//EN"
 "http://www.w3.org/TR/2001/REC-SVG-20010904/DTD/svg10.dtd">
<svg version="1.0" xmlns="http://www.w3.org/2000/svg"
 width="246.000000pt" height="453.000000pt" viewBox="0 0 246.000000 453.000000"
 preserveAspectRatio="xMidYMid meet">

<g transform="translate(0.000000,453.000000) scale(0.100000,-0.100000)"
fill="#000000" stroke="none">
<path d="M820 4474 c-30 -9 -56 -16 -57 -17 -1 -1 3 -18 7 -37 9 -35 9 -35 7
-3 -3 31 -2 32 54 46 l57 14 6 -30 c3 -16 6 -42 6 -58 0 -15 4 -30 9 -34 6 -3
7 17 4 50 -3 31 -2 55 3 55 5 0 47 -16 93 -35 46 -20 105 -40 130 -46 25 -5
55 -12 66 -15 13 -4 16 -3 10 3 -5 5 -33 15 -61 21 -28 6 -94 30 -145 53 -116
51 -121 51 -189 33z"/>
<path d="M1623 4448 c-29 -16 -93 -39 -143 -52 -100 -25 -124 -37 -58 -29 58
7 153 39 207 69 32 18 47 21 52 13 5 -9 8 -8 10 3 4 12 11 12 52 0 42 -12 48
-17 43 -35 -9 -37 -66 -443 -65 -463 1 -19 77 446 78 478 1 12 -15 21 -53 32
-66 19 -59 20 -123 -16z"/>
<path d="M1666 4349 c-4 -33 -5 -63 -3 -66 3 -2 8 23 12 57 4 34 5 63 2 66 -2
3 -7 -23 -11 -57z"/>
<path d="M784 4345 c14 -84 40 -195 43 -191 5 5 -37 219 -45 226 -2 3 -2 -13
2 -35z"/>
<path d="M1263 4363 c20 -2 54 -2 75 0 20 2 3 4 -38 4 -41 0 -58 -2 -37 -4z"/>
<path d="M910 4305 c0 -19 4 -35 8 -35 4 0 6 16 4 35 -2 19 -6 35 -8 35 -2 0
-4 -16 -4 -35z"/>
<path d="M1656 4249 c-3 -13 -16 -118 -31 -233 -26 -217 -45 -285 -83 -305
-13 -7 -99 -11 -232 -11 -260 0 -269 3 -311 97 -16 34 -29 71 -29 82 0 11 -5
23 -11 27 -8 4 -9 -1 -4 -17 29 -97 43 -127 72 -160 18 -20 33 -43 33 -50 1
-10 4 -8 11 4 8 14 14 15 31 6 14 -8 50 -9 105 -5 l83 6 0 -360 c0 -233 4
-360 10 -360 6 0 10 126 10 358 l0 358 115 -1 c97 0 114 -2 110 -15 -7 -18 4
-7 19 19 40 68 49 90 61 154 7 40 16 101 19 137 3 36 12 115 20 175 13 101 14
150 2 94z"/>
<path d="M922 4210 c0 -19 2 -27 5 -17 2 9 2 25 0 35 -3 9 -5 1 -5 -18z"/>
<path d="M928 4115 c2 -19 6 -35 8 -35 2 0 4 16 4 35 0 19 -4 35 -8 35 -4 0
-6 -16 -4 -35z"/>
<path d="M832 4120 c0 -14 2 -19 5 -12 2 6 2 18 0 25 -3 6 -5 1 -5 -13z"/>
<path d="M844 4048 c4 -24 9 -79 12 -123 5 -69 3 -84 -15 -113 -12 -18 -37
-40 -56 -49 -39 -19 -40 -23 -20 -108 14 -58 14 -23 0 50 -5 27 -2 32 36 53
l41 24 42 -41 c23 -23 46 -41 51 -41 5 0 -12 22 -38 48 -45 46 -47 50 -37 78
6 16 11 52 11 79 0 55 -20 185 -28 185 -3 0 -3 -19 1 -42z"/>
<path d="M943 4015 c0 -22 2 -30 4 -17 2 12 2 30 0 40 -3 9 -5 -1 -4 -23z"/>
<path d="M952 3945 c0 -16 2 -22 5 -12 2 9 2 23 0 30 -3 6 -5 -1 -5 -18z"/>
<path d="M1711 3913 c0 -12 4 -45 11 -73 l12 -52 -38 -35 c-49 -45 -42 -52 8
-8 l38 33 34 -20 c33 -20 34 -22 30 -72 -5 -48 -5 -49 4 -11 15 66 12 74 -25
92 -30 14 -38 26 -50 67 -8 28 -16 62 -18 76 -4 22 -4 22 -6 3z"/>
<path d="M1072 3625 c0 -16 2 -22 5 -12 2 9 2 23 0 30 -3 6 -5 -1 -5 -18z"/>
<path d="M1531 3634 c0 -11 3 -14 6 -6 3 7 2 16 -1 19 -3 4 -6 -2 -5 -13z"/>
<path d="M1762 3432 c-19 -112 -31 -206 -28 -209 3 -4 6 -1 6 5 0 6 14 91 30
189 17 98 29 187 28 198 -2 11 -18 -71 -36 -183z"/>
<path d="M1517 3526 c-4 -49 -5 -91 -3 -93 6 -6 19 140 14 163 -2 10 -7 -21
-11 -70z"/>
<path d="M782 3565 c0 -16 2 -22 5 -12 2 9 2 23 0 30 -3 6 -5 -1 -5 -18z"/>
<path d="M1082 3565 c0 -16 2 -22 5 -12 2 9 2 23 0 30 -3 6 -5 -1 -5 -18z"/>
<path d="M791 3515 c0 -11 8 -58 18 -105 11 -47 19 -76 20 -65 0 11 -8 58 -18
105 -11 47 -19 76 -20 65z"/>
<path d="M1090 3487 c4 -41 5 -41 8 -8 2 18 0 37 -5 42 -5 5 -6 -11 -3 -34z"/>
<path d="M1098 3282 c4 -230 8 -254 10 -57 1 99 -2 185 -6 192 -4 6 -6 -55 -4
-135z"/>
<path d="M1497 3313 c-9 -143 -9 -313 1 -313 4 0 8 95 9 210 1 116 1 210 -1
210 -2 0 -6 -48 -9 -107z"/>
<path d="M832 3300 c0 -14 2 -19 5 -12 2 6 2 18 0 25 -3 6 -5 1 -5 -13z"/>
<path d="M841 3203 c5 -38 8 -112 8 -165 1 -54 4 -98 9 -98 4 0 7 42 7 93 -1
102 -14 237 -24 237 -4 0 -4 -30 0 -67z"/>
<path d="M1723 3170 c0 -25 2 -35 4 -22 2 12 2 32 0 45 -2 12 -4 2 -4 -23z"/>
<path d="M1713 3045 c0 -44 2 -61 4 -37 2 23 2 59 0 80 -2 20 -4 1 -4 -43z"/>
<path d="M1716 2952 c-2 -4 -1 -14 5 -22 7 -12 9 -10 9 8 0 23 -5 28 -14 14z"/>
<path d="M1724 2888 c19 -70 20 -68 -7 -68 -18 0 -27 7 -31 25 -4 14 -4 30 -1
35 4 6 1 10 -4 10 -17 0 -13 -30 15 -100 13 -36 22 -53 19 -38 -3 14 -8 33
-11 42 -9 23 23 20 36 -3 5 -11 21 -56 36 -101 14 -45 27 -80 30 -78 2 2 -8
42 -23 89 -14 46 -28 95 -29 109 -11 77 -17 100 -26 100 -6 0 -8 -10 -4 -22z"/>
<path d="M836 2875 c-3 -9 -6 -22 -5 -28 0 -7 5 -1 10 12 5 13 8 26 5 28 -2 2
-6 -3 -10 -12z"/>
<path d="M877 2839 c-5 -17 -11 -21 -31 -17 -17 4 -26 1 -26 -8 0 -7 -2 -21
-5 -31 -3 -10 0 -8 7 5 8 17 18 22 34 19 17 -3 24 2 29 21 3 13 4 26 2 29 -3
2 -7 -6 -10 -18z"/>
<path d="M846 2718 c-9 -40 -30 -119 -47 -176 -29 -104 -36 -137 -18 -92 20
48 96 340 89 340 -4 0 -14 -33 -24 -72z"/>
<path d="M1322 2740 c0 -19 2 -27 5 -17 2 9 2 25 0 35 -3 9 -5 1 -5 -18z"/>
<path d="M782 2713 c-27 -65 -185 -544 -180 -548 2 -2 41 109 87 248 46 139
92 272 102 296 11 24 18 46 15 48 -2 2 -12 -18 -24 -44z"/>
<path d="M1725 2700 c14 -64 96 -374 100 -378 8 -8 7 -3 -35 164 -33 133 -83
297 -65 214z"/>
<path d="M1215 2690 c3 -5 8 -10 11 -10 2 0 4 5 4 10 0 6 -5 10 -11 10 -5 0
-7 -4 -4 -10z"/>
<path d="M1811 2595 c0 -5 13 -50 29 -100 17 -49 27 -75 24 -56 -7 38 -52 171
-53 156z"/>
<path d="M1120 2570 c0 -5 5 -10 10 -10 6 0 10 5 10 10 0 6 -4 10 -10 10 -5 0
-10 -4 -10 -10z"/>
<path d="M1530 2535 c-7 -9 -11 -17 -9 -20 3 -2 10 5 17 15 14 24 10 26 -8 5z"/>
<path d="M860 2523 c0 -5 5 -15 10 -23 7 -12 9 -10 7 8 -1 19 -17 33 -17 15z"/>
<path d="M1139 2503 c-13 -16 -12 -17 4 -4 9 7 17 15 17 17 0 8 -8 3 -21 -13z"/>
<path d="M1270 2461 c0 -5 7 -12 16 -15 14 -5 15 -4 4 9 -14 17 -20 19 -20 6z"/>
<path d="M849 2413 c-13 -16 -12 -17 4 -4 9 7 17 15 17 17 0 8 -8 3 -21 -13z"/>
<path d="M722 2273 c-44 -159 -64 -247 -33 -148 36 112 82 287 78 291 -2 2
-22 -62 -45 -143z"/>
<path d="M999 2403 c-13 -16 -12 -17 4 -4 9 7 17 15 17 17 0 8 -8 3 -21 -13z"/>
<path d="M1246 2397 c3 -10 9 -15 12 -12 3 3 0 11 -7 18 -10 9 -11 8 -5 -6z"/>
<path d="M1871 2395 c0 -5 15 -68 34 -140 20 -71 47 -176 61 -233 15 -56 29
-101 31 -98 2 2 -18 91 -46 197 -51 199 -78 292 -80 274z"/>
<path d="M1566 2333 c-6 -14 -5 -15 5 -6 7 7 10 15 7 18 -3 3 -9 -2 -12 -12z"/>
<path d="M1269 2323 c-13 -16 -12 -17 4 -4 9 7 17 15 17 17 0 8 -8 3 -21 -13z"/>
<path d="M1831 2294 c0 -11 3 -14 6 -6 3 7 2 16 -1 19 -3 4 -6 -2 -5 -13z"/>
<path d="M1841 2260 c0 -8 4 -24 9 -35 5 -13 9 -14 9 -5 0 8 -4 24 -9 35 -5
13 -9 14 -9 5z"/>
<path d="M1861 2184 c0 -11 3 -14 6 -6 3 7 2 16 -1 19 -3 4 -6 -2 -5 -13z"/>
<path d="M1871 2152 c-1 -7 6 -41 14 -75 8 -34 26 -118 42 -186 15 -68 29
-119 31 -113 1 5 -13 81 -33 169 -38 170 -53 226 -54 205z"/>
<path d="M587 2133 c-49 -174 -87 -316 -84 -320 2 -2 12 25 21 59 10 35 31
110 47 167 16 57 28 106 26 108 -3 2 -7 -4 -10 -14z"/>
<path d="M1596 2133 c-6 -14 -5 -15 5 -6 7 7 10 15 7 18 -3 3 -9 -2 -12 -12z"/>
<path d="M1104 2108 l-19 -23 23 19 c21 18 27 26 19 26 -2 0 -12 -10 -23 -22z"/>
<path d="M741 2054 c0 -11 3 -14 6 -6 3 7 2 16 -1 19 -3 4 -6 -2 -5 -13z"/>
<path d="M653 2023 c-6 -21 -27 -94 -47 -162 -20 -68 -35 -125 -33 -127 2 -3
14 31 27 73 12 43 33 115 47 161 14 45 23 85 21 88 -3 2 -10 -12 -15 -33z"/>
<path d="M920 1990 c-8 -5 -12 -11 -9 -14 2 -3 11 -1 19 4 8 5 12 11 9 14 -2
3 -11 1 -19 -4z"/>
<path d="M1636 1933 c-6 -14 -5 -15 5 -6 7 7 10 15 7 18 -3 3 -9 -2 -12 -12z"/>
<path d="M2001 1894 c0 -11 3 -14 6 -6 3 7 2 16 -1 19 -3 4 -6 -2 -5 -13z"/>
<path d="M2011 1854 c0 -11 3 -14 6 -6 3 7 2 16 -1 19 -3 4 -6 -2 -5 -13z"/>
<path d="M2021 1825 c0 -5 6 -32 13 -60 8 -27 14 -41 14 -30 0 21 -25 107 -27
90z"/>
<path d="M471 1724 c-12 -42 -20 -78 -18 -80 2 -2 14 30 26 72 12 42 20 78 18
80 -2 2 -14 -30 -26 -72z"/>
<path d="M689 1783 c-13 -16 -12 -17 4 -4 9 7 17 15 17 17 0 8 -8 3 -21 -13z"/>
<path d="M1961 1750 c0 -8 6 -37 13 -65 8 -27 15 -43 15 -35 0 8 -6 38 -13 65
-8 28 -15 43 -15 35z"/>
<path d="M1676 1733 c-6 -14 -5 -15 5 -6 7 7 10 15 7 18 -3 3 -9 -2 -12 -12z"/>
<path d="M547 1658 c-19 -70 -30 -128 -22 -113 13 27 52 175 45 175 -4 0 -14
-28 -23 -62z"/>
<path d="M2051 1700 c-2 -21 72 -340 77 -335 5 4 -28 161 -58 280 -10 39 -19
63 -19 55z"/>
<path d="M433 1593 c-6 -21 -27 -100 -47 -177 -20 -76 -35 -140 -33 -143 3 -2
9 13 15 34 69 258 83 315 79 319 -2 3 -9 -12 -14 -33z"/>
<path d="M1991 1614 c0 -11 3 -14 6 -6 3 7 2 16 -1 19 -3 4 -6 -2 -5 -13z"/>
<path d="M2002 1570 c0 -14 2 -19 5 -12 2 6 2 18 0 25 -3 6 -5 1 -5 -13z"/>
<path d="M1015 1560 c3 -5 8 -10 11 -10 2 0 4 5 4 10 0 6 -5 10 -11 10 -5 0
-7 -4 -4 -10z"/>
<path d="M1709 1533 c-13 -16 -12 -17 4 -4 9 7 17 15 17 17 0 8 -8 3 -21 -13z"/>
<path d="M2011 1530 c0 -8 6 -37 13 -65 8 -27 15 -43 15 -35 0 8 -6 38 -13 65
-8 28 -15 43 -15 35z"/>
<path d="M457 1327 c-69 -249 -119 -448 -114 -453 2 -3 25 78 51 178 26 101
65 247 87 326 23 79 39 146 37 148 -3 2 -30 -87 -61 -199z"/>
<path d="M1249 1513 c-13 -16 -12 -17 4 -4 9 7 17 15 17 17 0 8 -8 3 -21 -13z"/>
<path d="M1034 1498 l-19 -23 23 19 c21 18 27 26 19 26 -2 0 -12 -10 -23 -22z"/>
<path d="M1465 1510 c-3 -5 -2 -10 4 -10 5 0 13 5 16 10 3 6 2 10 -4 10 -5 0
-13 -4 -16 -10z"/>
<path d="M605 1399 c-4 -6 -5 -12 -2 -15 2 -3 7 2 10 11 7 17 1 20 -8 4z"/>
<path d="M2042 1390 c0 -14 2 -19 5 -12 2 6 2 18 0 25 -3 6 -5 1 -5 -13z"/>
<path d="M1703 1375 c0 -8 4 -12 9 -9 5 3 6 10 3 15 -9 13 -12 11 -12 -6z"/>
<path d="M1215 1370 c3 -5 8 -10 11 -10 2 0 4 5 4 10 0 6 -5 10 -11 10 -5 0
-7 -4 -4 -10z"/>
<path d="M2054 1325 c17 -100 80 -395 84 -391 2 3 -5 49 -17 103 -11 54 -22
110 -25 125 -13 76 -39 194 -43 198 -3 3 -3 -13 1 -35z"/>
<path d="M2131 1334 c0 -11 3 -14 6 -6 3 7 2 16 -1 19 -3 4 -6 -2 -5 -13z"/>
<path d="M1737 1333 c-4 -3 -7 -11 -7 -17 0 -6 5 -5 12 2 6 6 9 14 7 17 -3 3
-9 2 -12 -2z"/>
<path d="M1019 1303 c-13 -16 -12 -17 4 -4 9 7 17 15 17 17 0 8 -8 3 -21 -13z"/>
<path d="M1240 1309 c0 -5 5 -7 10 -4 6 3 10 8 10 11 0 2 -4 4 -10 4 -5 0 -10
-5 -10 -11z"/>
<path d="M2142 1290 c0 -14 2 -19 5 -12 2 6 2 18 0 25 -3 6 -5 1 -5 -13z"/>
<path d="M341 1244 c0 -11 3 -14 6 -6 3 7 2 16 -1 19 -3 4 -6 -2 -5 -13z"/>
<path d="M2152 1250 c-1 -8 7 -49 17 -90 11 -41 19 -66 19 -55 0 24 -35 166
-36 145z"/>
<path d="M311 1144 c-7 -25 -10 -48 -8 -51 3 -2 10 17 16 43 7 25 10 48 8 51
-3 2 -10 -17 -16 -43z"/>
<path d="M764 1165 c-10 -8 -14 -15 -8 -15 6 0 17 7 24 15 16 19 9 19 -16 0z"/>
<path d="M1970 1159 c0 -5 5 -7 10 -4 6 3 10 8 10 11 0 2 -4 4 -10 4 -5 0 -10
-5 -10 -11z"/>
<path d="M1770 1135 c-7 -9 -8 -15 -2 -15 5 0 12 7 16 15 3 8 4 15 2 15 -2 0
-9 -7 -16 -15z"/>
<path d="M1506 1083 c-6 -14 -5 -15 5 -6 7 7 10 15 7 18 -3 3 -9 -2 -12 -12z"/>
<path d="M262 963 c-35 -131 -48 -191 -39 -183 7 7 78 292 74 297 -3 2 -18
-49 -35 -114z"/>
<path d="M2191 1064 c0 -11 3 -14 6 -6 3 7 2 16 -1 19 -3 4 -6 -2 -5 -13z"/>
<path d="M725 1040 c-3 -6 1 -7 9 -4 18 7 21 14 7 14 -6 0 -13 -4 -16 -10z"/>
<path d="M2204 1000 c8 -54 32 -158 57 -255 25 -92 19 -54 -20 135 -31 149
-51 214 -37 120z"/>
<path d="M1228 993 c7 -3 16 -2 19 1 4 3 -2 6 -13 5 -11 0 -14 -3 -6 -6z"/>
<path d="M1229 913 c-13 -16 -12 -17 4 -4 9 7 17 15 17 17 0 8 -8 3 -21 -13z"/>
<path d="M2141 894 c0 -11 3 -14 6 -6 3 7 2 16 -1 19 -3 4 -6 -2 -5 -13z"/>
<path d="M2152 850 c0 -28 25 -133 26 -110 1 8 -5 42 -12 75 -8 33 -14 49 -14
35z"/>
<path d="M331 844 c0 -11 3 -14 6 -6 3 7 2 16 -1 19 -3 4 -6 -2 -5 -13z"/>
<path d="M1519 813 c-13 -16 -12 -17 4 -4 16 13 21 21 13 21 -2 0 -10 -8 -17
-17z"/>
<path d="M311 774 c-7 -25 -10 -48 -8 -51 3 -2 10 17 16 43 7 25 10 48 8 51
-3 2 -10 -17 -16 -43z"/>
<path d="M201 724 c-7 -25 -10 -48 -8 -51 3 -2 10 17 16 43 7 25 10 48 8 51
-3 2 -10 -17 -16 -43z"/>
<path d="M675 750 c-3 -5 -2 -10 4 -10 5 0 13 5 16 10 3 6 2 10 -4 10 -5 0
-13 -4 -16 -10z"/>
<path d="M949 703 c-13 -16 -12 -17 4 -4 9 7 17 15 17 17 0 8 -8 3 -21 -13z"/>
<path d="M2180 715 c0 -28 55 -307 58 -293 3 16 -46 289 -54 297 -2 2 -4 0 -4
-4z"/>
<path d="M266 598 c-38 -166 -53 -248 -47 -248 7 0 82 352 77 358 -2 2 -15
-48 -30 -110z"/>
<path d="M2282 650 c0 -14 2 -19 5 -12 2 6 2 18 0 25 -3 6 -5 1 -5 -13z"/>
<path d="M181 644 c0 -11 3 -14 6 -6 3 7 2 16 -1 19 -3 4 -6 -2 -5 -13z"/>
<path d="M1529 643 c-13 -16 -12 -17 4 -4 16 13 21 21 13 21 -2 0 -10 -8 -17
-17z"/>
<path d="M170 618 c0 -4 -21 -86 -46 -183 -25 -97 -44 -181 -42 -187 2 -6 25
74 51 178 25 103 44 190 42 193 -3 2 -5 2 -5 -1z"/>
<path d="M2291 604 c0 -11 3 -14 6 -6 3 7 2 16 -1 19 -3 4 -6 -2 -5 -13z"/>
<path d="M2302 565 c0 -11 6 -42 13 -70 7 -27 13 -41 13 -30 0 11 -6 43 -13
70 -7 28 -13 41 -13 30z"/>
<path d="M1876 543 c-6 -14 -5 -15 5 -6 7 7 10 15 7 18 -3 3 -9 -2 -12 -12z"/>
<path d="M925 500 c-10 -11 -16 -22 -14 -24 2 -2 12 7 22 20 22 29 17 32 -8 4z"/>
<path d="M1540 465 c-8 -9 -8 -15 -2 -15 12 0 26 19 19 26 -2 2 -10 -2 -17
-11z"/>
<path d="M2331 434 c-1 -6 10 -62 24 -124 14 -62 24 -114 22 -116 -2 -2 -55
-10 -118 -19 -63 -8 -134 -19 -159 -24 -73 -14 -9 -12 97 3 54 8 120 18 146
21 l49 6 -7 37 c-10 56 -53 228 -54 216z"/>
<path d="M2241 393 c0 -7 4 -35 10 -63 6 -28 8 -54 5 -57 -9 -10 -186 -39
-291 -48 -27 -2 -61 -7 -75 -9 -106 -21 -237 -28 -583 -33 -383 -5 -397 -4
-391 14 5 14 4 15 -4 4 -7 -10 -29 -14 -79 -12 -67 2 -245 16 -353 27 -30 3
-104 11 -165 18 l-110 11 2 30 2 30 -10 -34 c-6 -18 -8 -35 -6 -37 5 -6 401
-41 602 -54 277 -18 864 -8 1085 19 258 31 381 52 387 67 3 7 -2 42 -10 76 -8
35 -15 58 -16 51z"/>
<path d="M1548 363 c7 -3 16 -2 19 1 4 3 -2 6 -13 5 -11 0 -14 -3 -6 -6z"/>
<path d="M604 344 c-18 -14 -18 -15 4 -4 12 6 22 13 22 15 0 8 -5 6 -26 -11z"/>
<path d="M211 324 c0 -11 3 -14 6 -6 3 7 2 16 -1 19 -3 4 -6 -2 -5 -13z"/>
<path d="M1210 320 c-8 -5 -12 -12 -9 -15 4 -3 12 1 19 10 14 17 11 19 -10 5z"/>
<path d="M65 199 c-4 -17 -5 -32 -2 -35 8 -8 198 -34 236 -33 33 2 33 2 6 5
-28 4 -127 18 -203 30 -31 5 -33 7 -27 35 4 16 4 29 2 29 -3 0 -8 -14 -12 -31z"/>
<path d="M1965 140 l-60 -7 60 -1 c33 -1 67 3 75 8 17 11 25 11 -75 0z"/>
<path d="M345 130 c3 -6 32 -10 63 -11 31 0 87 -3 124 -7 37 -5 65 -5 62 -1
-2 4 -48 10 -102 13 -53 4 -110 9 -125 11 -17 3 -26 1 -22 -5z"/>
<path d="M1695 120 l-50 -7 52 -1 c28 -1 55 3 58 8 3 6 3 9 -2 8 -4 0 -30 -4
-58 -8z"/>
<path d="M1773 124 c7 -8 118 -6 125 1 3 3 -25 5 -63 5 -38 0 -65 -3 -62 -6z"/>
<path d="M627 110 c4 -5 31 -10 60 -12 29 -1 49 0 45 3 -10 9 -115 18 -105 9z"/>
<path d="M1430 113 c-52 -2 -98 -7 -102 -11 -11 -11 185 -2 197 9 5 5 7 8 5 7
-3 -1 -48 -4 -100 -5z"/>
<path d="M1578 113 c12 -2 32 -2 45 0 12 2 2 4 -23 4 -25 0 -35 -2 -22 -4z"/>
</g>
</svg>
